<svg xmlns="http://www.w3.org/2000/svg" xmlns:xlink="http://www.w3.org/1999/xlink" version="1.1" id="Layer_1" x="0px" y="0px" enable-background="new 0 0 841.89 595.28" xml:space="preserve" viewBox="147.26 248.65 543.36 97.97">
<g>
	<g>
		<path fill="#00ADEF" d="M218.859,258.583l-29.872,29.87c-0.33,0.265-0.655,0.55-0.963,0.858c-2.295,2.297-3.436,5.308-3.425,8.319    c-0.016,3.015,1.123,6.041,3.425,8.339c0.308,0.307,0.631,0.591,0.958,0.854l29.877,29.878c4.571,4.569,11.982,4.569,16.553,0    c4.571-4.57,4.571-11.979,0-16.553l-22.506-22.507l22.506-22.505c4.571-4.571,4.571-11.98,0-16.554    C230.842,254.011,223.43,254.011,218.859,258.583z"/>
	</g>
	<g>
		<path fill="#00275E" stroke="#00275E" stroke-width="2" stroke-miterlimit="10" d="M382.025,312.93    c0-10.047-8.133-18.183-18.183-18.183c-9.856,0-18.185,8.517-18.185,18.183v23.923h-5.739v-71.771h5.739v32.345    c4.403-5.167,10.91-8.422,18.185-8.422c13.206,0,23.924,10.717,23.924,23.925v23.923h-5.741V312.93z"/>
		<path fill="#00275E" stroke="#00275E" stroke-width="2" stroke-miterlimit="10" d="M421.258,331.113    c4.974,0,9.567-2.012,12.824-5.264l4.111,3.925c-4.305,4.398-10.336,7.078-16.936,7.078c-13.206,0-23.926-10.719-23.926-23.923    c0-13.208,10.72-23.925,23.926-23.925c13.202,0,23.921,10.717,23.921,23.925v2.872h-41.913    C404.699,324.511,412.168,331.113,421.258,331.113z M403.266,310.059h35.883c-1.338-8.709-8.802-15.312-17.891-15.312    C412.168,294.747,404.699,301.35,403.266,310.059z"/>
		<path fill="#00275E" stroke="#00275E" stroke-width="2" stroke-miterlimit="10" d="M454.746,265.081h5.742v71.771h-5.742V265.081z    "/>
		<path fill="#00275E" stroke="#00275E" stroke-width="2" stroke-miterlimit="10" d="M470.055,265.081h5.742v71.771h-5.742V265.081z    "/>
	</g>
	<path fill="#00ADEF" stroke="#00ADEF" stroke-width="2" stroke-miterlimit="10" d="M496.839,312.993l23.603,16.065v7.794   l-35.008-23.819l35.008-24.029v7.521L496.839,312.993z"/>
	<path fill="#00ADEF" stroke="#00ADEF" stroke-width="2" stroke-miterlimit="10" d="M550.876,289.004   c13.204,0,23.922,10.717,23.922,23.925c0,13.204-10.718,23.923-23.922,23.923c-13.209,0-23.927-10.719-23.927-23.923   C526.949,299.722,537.667,289.004,550.876,289.004z M550.876,331.113c10.044,0,18.179-8.137,18.179-18.184   s-8.135-18.183-18.179-18.183c-10.05,0-18.187,8.136-18.187,18.183S540.826,331.113,550.876,331.113z"/>
	<path fill="#00ADEF" stroke="#00ADEF" stroke-width="2" stroke-miterlimit="10" d="M632.213,336.853h-5.744v-8.324   c-4.402,5.071-10.91,8.324-18.182,8.324c-13.206,0-23.924-10.719-23.924-23.923c0-13.208,10.718-23.925,23.924-23.925   c7.271,0,13.779,3.254,18.182,8.422v-32.345h5.744V336.853z M608.287,294.747c-10.048,0-18.182,8.136-18.182,18.183   s8.134,18.184,18.182,18.184c10.047,0,18.182-8.137,18.182-18.184C626.469,302.498,618.143,294.747,608.287,294.747z"/>
	<path fill="#00ADEF" stroke="#00ADEF" stroke-width="2" stroke-miterlimit="10" d="M665.701,331.113   c4.977,0,9.567-2.012,12.822-5.264l4.116,3.925c-4.306,4.398-10.337,7.078-16.938,7.078c-13.207,0-23.926-10.719-23.926-23.923   c0-13.208,10.719-23.925,23.926-23.925c13.204,0,23.926,10.717,23.926,23.925v2.872h-41.919   C649.146,324.511,656.61,331.113,665.701,331.113z M647.708,310.059h35.889c-1.342-8.709-8.808-15.312-17.896-15.312   C656.61,294.747,649.146,301.35,647.708,310.059z"/>
	<g>
		<path fill="#00275E" stroke="#00275E" stroke-width="2" stroke-miterlimit="10" d="M283.547,295.313    c-0.208-0.429-0.402-0.871-0.572-1.313h6.371c1.716,2.379,4.589,3.537,8.75,3.537h19.759c3.603,0,9.53,1.859,12.469,8.021h-6.825    c-2.275-2.25-5.123-2.354-5.644-2.354h-19.759C289.28,303.204,285.315,298.914,283.547,295.313z"/>
		<path fill="#00275E" stroke="#00275E" stroke-width="2" stroke-miterlimit="10" d="M332.104,314.54    c0,7.046-0.143,15.64-10.687,15.64h-1.273c-4.108,0-7.657-0.025-9.166,1.469c-0.871,0.871-1.325,2.561-1.325,4.992h-5.669    c-0.025-1.053-0.559-6.461-8.735-6.461c-10.635,0-13.703-2.521-13.703-11.284v-5.785h5.669v5.785c0,2.301,0.13,3.965,0.754,4.511    c0.819,0.742,3.263,1.104,7.28,1.104c5.291,0,8.774,1.717,10.985,3.967c0.233-0.3,0.481-0.573,0.741-0.846    c3.172-3.159,8.033-3.146,13.194-3.121h1.248c4.304,0,4.992-1.313,5.006-9.971H332.104z"/>
		<path fill="#00275E" stroke="#00275E" stroke-width="2" stroke-miterlimit="10" d="M332.104,281.494v5.616h-5.681v-5.616    c0-2.822-0.56-4.16-5.708-4.16c-0.571,0-1.169,0.026-1.781,0.052c-3.679,0.104-8.254,0.247-11.621-2.912    c-0.39-0.364-0.742-0.754-1.066-1.183c-1.65,2.327-4.057,4.043-7.436,4.043h-8.398c-0.794,0-3.198,0-3.198,6.292v0.195    c0,0.377,0,0.767,0.013,1.196h-5.669c-0.013-0.429-0.013-0.832-0.013-1.196v-0.195c0-10.791,6.202-11.96,8.867-11.96h8.398    c3.939,0,4.822-7.541,4.835-7.619l5.655,0.196c0.091,2.951,0.729,4.992,1.898,6.097c1.65,1.56,4.653,1.469,7.553,1.365    c0.676-0.013,1.34-0.039,1.963-0.039C323.523,271.665,332.104,271.665,332.104,281.494z"/>
	</g>
	<g>
		<path fill="#00275E" d="M165.467,343.377c-3.995,0-7.751-1.555-10.573-4.379c-5.831-5.835-5.831-15.323,0-21.152l20.207-20.206    l-20.207-20.207c-2.824-2.825-4.38-6.581-4.38-10.576s1.556-7.751,4.38-10.575c2.822-2.824,6.578-4.379,10.573-4.379    s7.751,1.555,10.574,4.379l29.77,29.765c0.389,0.321,0.74,0.64,1.07,0.971c2.837,2.833,4.394,6.614,4.374,10.64    c0.015,3.996-1.542,7.772-4.38,10.61c-0.318,0.321-0.677,0.644-1.082,0.976l-29.752,29.754    C173.218,341.822,169.462,343.377,165.467,343.377z"/>
		<path fill="#FFFFFF" d="M165.467,255.154c2.996,0,5.991,1.142,8.276,3.427l29.885,29.881c0.327,0.265,0.646,0.546,0.949,0.851    c2.302,2.298,3.442,5.317,3.428,8.331c0.011,3.011-1.127,6.027-3.428,8.326c-0.308,0.311-0.63,0.591-0.962,0.857L173.743,336.7    c-2.285,2.285-5.28,3.427-8.276,3.427c-2.995,0-5.991-1.142-8.275-3.427c-4.57-4.573-4.574-11.983,0-16.557l22.505-22.503    l-22.505-22.505c-4.57-4.571-4.57-11.984,0-16.554C159.476,256.296,162.472,255.154,165.467,255.154 M165.467,248.654    c-4.863,0-9.436,1.894-12.872,5.332c-3.437,3.436-5.331,8.008-5.331,12.872c0,4.863,1.893,9.436,5.331,12.874l17.908,17.909    l-17.907,17.908c-7.098,7.096-7.1,18.646-0.001,25.747c3.437,3.439,8.009,5.332,12.872,5.332s9.436-1.893,12.872-5.331    l29.644-29.645c0.44-0.366,0.839-0.729,1.21-1.104c3.436-3.434,5.329-8.031,5.313-12.926c0.022-4.847-1.873-9.45-5.335-12.908    c-0.359-0.36-0.745-0.714-1.167-1.068l-29.665-29.661C174.902,250.547,170.33,248.654,165.467,248.654L165.467,248.654z"/>
	</g>
	<g>
		
			<rect x="185.488" y="324.612" transform="matrix(0.707 0.7072 -0.7072 0.707 290.8928 -34.6899)" fill="#00ADEF" width="3.644" height="18.176"/>
	</g>
	<g>
		
			<rect x="179.061" y="259.757" transform="matrix(0.7072 0.707 -0.707 0.7072 240.0417 -56.4316)" fill="#00ADEF" width="18.176" height="3.644"/>
	</g>
</g>
</svg>