<svg xmlns="http://www.w3.org/2000/svg" viewBox="147 248 100 100" width="100" height="100">
  <g>
    <path fill="#00ADEF" d="M218.859,258.583l-29.872,29.87c-0.33,0.265-0.655,0.55-0.963,0.858c-2.295,2.297-3.436,5.308-3.425,8.319c-0.016,3.015,1.123,6.041,3.425,8.339c0.308,0.307,0.631,0.591,0.958,0.854l29.877,29.878c4.571,4.569,11.982,4.569,16.553,0c4.571-4.57,4.571-11.979,0-16.553l-22.506-22.507l22.506-22.505c4.571-4.571,4.571-11.98,0-16.554C230.842,254.011,223.43,254.011,218.859,258.583z"/>
    <path fill="#00275E" d="M165.467,343.377c-3.995,0-7.751-1.555-10.573-4.379c-5.831-5.835-5.831-15.323,0-21.152l20.207-20.206l-20.207-20.207c-2.824-2.825-4.38-6.581-4.38-10.576s1.556-7.751,4.38-10.575c2.822-2.824,6.578-4.379,10.573-4.379s7.751,1.555,10.574,4.379l29.77,29.765c0.389,0.321,0.74,0.64,1.07,0.971c2.837,2.833,4.394,6.614,4.374,10.64c0.015,3.996-1.542,7.772-4.38,10.61c-0.318,0.321-0.677,0.644-1.082,0.976l-29.752,29.754C173.218,341.822,169.462,343.377,165.467,343.377z"/>
    <path fill="#FFFFFF" d="M165.467,255.154c2.996,0,5.991,1.142,8.276,3.427l29.885,29.881c0.327,0.265,0.646,0.546,0.949,0.851c2.302,2.298,3.442,5.317,3.428,8.331c0.011,3.011-1.127,6.027-3.428,8.326c-0.308,0.311-0.63,0.591-0.962,0.857L173.743,336.7c-2.285,2.285-5.28,3.427-8.276,3.427c-2.995,0-5.991-1.142-8.275-3.427c-4.57-4.573-4.574-11.983,0-16.557l22.505-22.503l-22.505-22.505c-4.57-4.571-4.57-11.984,0-16.554C159.476,256.296,162.472,255.154,165.467,255.154z"/>
    <rect x="185.488" y="324.612" transform="matrix(0.707 0.7072 -0.7072 0.707 290.8928 -34.6899)" fill="#00ADEF" width="3.644" height="18.176"/>
    <rect x="179.061" y="259.757" transform="matrix(0.7072 0.707 -0.707 0.7072 240.0417 -56.4316)" fill="#00ADEF" width="18.176" height="3.644"/>
  </g>
</svg>
